<svg xmlns="http://www.w3.org/2000/svg" xmlns:xlink="http://www.w3.org/1999/xlink" version="1.1" x="0px" y="0px" viewBox="0 0 100 125" enable-background="new 0 0 100 100" xml:space="preserve"><path d="M46.2,10.2C46.2,10.2,46.2,10.2,46.2,10.2c-0.2-0.7-0.2-1.4,0-2.1c0.2-0.8,0.6-1.4,1.1-1.9c0.3-0.3,0.6-0.6,1-0.8  c0.3-0.2,0.6-0.4,1-0.5l0,0c0.3-0.1,0.6-0.2,0.9-0.2c0.1,0,0.3,0,0.4,0c0.8,0,1.4,0.2,1.8,0.5c0.8,0.4,1.1,1,1.1,1s2,0.1,1.1,4.3  c0.3,0.1,0.5,0.5,0.1,1.5c-0.3,1-0.6,1.3-0.8,1.3c-0.1,0-0.1,0-0.2-0.1c-0.1,0.5-0.2,1-0.4,1.4v1.5c0,0,0,0,0,0  c-0.9-0.5-1.9-0.8-3-0.8c-0.2,0-0.4,0-0.6,0c-0.5,0-1.1,0.1-1.6,0.3c-0.3,0.1-0.6,0.2-0.9,0.4v-1.3c-0.3-0.6-0.5-1.2-0.6-1.8  c-0.2,0-0.5-0.3-0.8-1.3C45.5,10.5,45.8,10.2,46.2,10.2z M75,40.1c0.2-0.2,0.4-0.4,0.6-0.6c2.1-1.8,4.4-3.1,5.8-3.9  c-0.2-0.4-0.4-0.9-0.5-1.4c-0.6-0.8-0.9-1.8-1.1-2.3c-0.1-0.2-0.1-0.4-0.1-0.6c-0.6-0.3-1.1-0.6-1.2-0.7c-0.1,0-0.1-0.1-0.1-0.2  v-1.7c0.3-0.5,0.4-1.1,0.5-1.6c0,0,0.1,0.1,0.2,0.1c0.2,0,0.5-0.3,0.9-1.5c0.3-1.2,0.1-1.6-0.2-1.7c1-4.6-1.2-4.7-1.2-4.7  s-0.3-0.6-1.2-1.1c-0.5-0.3-1.2-0.5-2-0.5c-0.1,0-0.3,0-0.4,0c-0.3,0-0.7,0.1-1,0.2l0,0c-0.4,0.1-0.8,0.3-1.1,0.6  c-0.4,0.3-0.8,0.6-1.1,0.9c-0.5,0.5-1,1.2-1.2,2.1c-0.2,0.7-0.2,1.5,0.1,2.3c0,0,0,0-0.1,0c-0.3,0-0.6,0.2-0.5,1.2  c0.1,0.3,0.2,0.6,0.2,0.9c0.3,0.9,0.5,1.1,0.7,1.1c0.1,0.6,0.3,1.4,0.7,2v1.5c0,0.1,0,0.1-0.1,0.2c-0.2,0.1-0.6,0.3-1.2,0.6  c0,0.3-0.1,0.6-0.2,0.9c-0.2,0.5-0.5,1.8-1.4,2.6c-0.1,0.2-0.1,0.4-0.2,0.6v0.2c1.4,0.8,3.7,2.1,5.9,3.9  C74.6,39.7,74.8,39.9,75,40.1z M28.5,19.5c0,0-0.3-0.6-1.2-1.1c-0.5-0.3-1.2-0.5-2-0.5c-0.1,0-0.3,0-0.4,0c-0.3,0-0.7,0.1-1,0.2v0  c-0.4,0.1-0.8,0.3-1.1,0.6c-0.4,0.3-0.8,0.6-1.1,0.9c-0.5,0.5-1,1.2-1.2,2.1c-0.2,0.7-0.2,1.5,0.1,2.3c0,0,0,0-0.1,0  c-0.3,0-0.6,0.2-0.5,1.2c0.1,0.3,0.2,0.6,0.2,0.9c0.3,0.9,0.5,1.1,0.7,1.1c0.1,0.6,0.3,1.4,0.7,2v1.5c0,0.1,0,0.1-0.1,0.2  c-0.2,0.1-0.6,0.3-1.2,0.6c0,0.3-0.1,0.6-0.2,0.9c-0.2,0.5-0.5,1.8-1.4,2.6c-0.1,0.2-0.1,0.4-0.2,0.6v0.2c1.4,0.8,3.7,2.1,5.9,3.9  c0.2,0.2,0.4,0.4,0.6,0.6c0.2-0.2,0.4-0.4,0.6-0.6c2.1-1.8,4.4-3.1,5.8-3.9c-0.2-0.4-0.4-0.9-0.5-1.4c-0.6-0.8-0.9-1.8-1.1-2.3  c-0.1-0.2-0.1-0.4-0.1-0.6c-0.6-0.3-1.1-0.6-1.2-0.7c-0.1,0-0.1-0.1-0.1-0.2v-1.7c0.3-0.5,0.4-1.1,0.5-1.6c0,0,0.1,0.1,0.2,0.1  c0.2,0,0.5-0.3,0.9-1.5c0.3-1.2,0.1-1.6-0.2-1.7C30.7,19.6,28.5,19.5,28.5,19.5z M97.9,41.3c-2.9-2.4-6-3.9-6.6-4.2  c-0.1,0-0.1-0.1-0.1-0.2V35c0.3-0.6,0.5-1.2,0.6-1.8c0.1,0,0.1,0.1,0.2,0.1c0.3,0,0.6-0.3,1-1.6c0.4-1.3,0.2-1.8-0.2-1.9  c1.1-5.1-1.4-5.3-1.4-5.3S91,23.7,90,23.2c-0.6-0.3-1.3-0.6-2.3-0.6c-0.2,0-0.3,0-0.5,0c-0.4,0-0.8,0.1-1.1,0.2l0,0  c-0.4,0.1-0.8,0.4-1.2,0.6c-0.4,0.3-0.9,0.6-1.2,1c-0.6,0.6-1.1,1.4-1.3,2.4c-0.2,0.8-0.2,1.7,0.1,2.6c0,0-0.1,0-0.1,0  c-0.4,0-0.8,0.3-0.4,1.9c0.4,1.3,0.7,1.6,0.9,1.6c0.1,0.7,0.3,1.5,0.8,2.3v1.7c0,0.1,0,0.1-0.1,0.2C83,37.4,79.9,39,77,41.3  c-0.5,0.4-0.8,1.1-0.8,1.7v3.2v11.9c0,1.8,0.6,3.5,1.7,4.8l2.4,2.8l2.2,27.8c0.1,1,0.9,1.7,1.9,1.7h6.2c1,0,1.8-0.8,1.9-1.7  l2.2-27.8l2.4-2.8c1.1-1.4,1.8-3.1,1.8-4.9V46.2v-3.2C98.7,42.4,98.4,41.7,97.9,41.3z M8.7,37.1C8.1,37.4,5,39,2.1,41.3  c-0.5,0.4-0.8,1.1-0.8,1.7v3.2v11.9c0,1.8,0.6,3.5,1.7,4.8l2.4,2.8l2.2,27.8c0.1,1,0.9,1.7,1.9,1.7h6.2c1,0,1.8-0.8,1.9-1.7  l2.2-27.8l2.4-2.8c1.1-1.4,1.8-3.1,1.8-4.9V46.2v-3.2c0-0.7-0.3-1.3-0.8-1.7c-2.9-2.4-6-3.9-6.6-4.2c-0.1,0-0.1-0.1-0.1-0.2V35  c0.3-0.6,0.5-1.2,0.6-1.8c0.1,0,0.1,0.1,0.2,0.1c0.3,0,0.6-0.3,1-1.6c0.4-1.3,0.1-1.8-0.2-1.9c1.1-5.1-1.4-5.3-1.4-5.3  s-0.4-0.7-1.3-1.2c-0.6-0.3-1.3-0.6-2.3-0.6c-0.2,0-0.3,0-0.5,0c-0.4,0-0.8,0.1-1.1,0.2l0,0c-0.4,0.1-0.8,0.4-1.2,0.6  c-0.4,0.3-0.9,0.6-1.2,1c-0.6,0.6-1.1,1.4-1.3,2.4c-0.2,0.8-0.2,1.7,0.1,2.6c0,0-0.1,0-0.1,0c-0.4,0-0.8,0.3-0.4,1.9  C7.5,32.6,7.8,33,8,33c0.1,0.7,0.3,1.5,0.8,2.3v1.7C8.8,37,8.8,37.1,8.7,37.1z M57.4,16.8c0.3,1.1,0.6,1.4,0.8,1.4  c0.1,0.6,0.3,1.3,0.7,1.9v1.3c0.5-0.3,1.1-0.6,1.6-0.8c0.5-0.2,1.1-0.3,1.7-0.3c0.2,0,0.4,0,0.6,0c0.9,0,1.7,0.2,2.5,0.5v-0.8  c0.2-0.5,0.4-1,0.5-1.5c0,0,0.1,0.1,0.2,0.1c0.2,0,0.5-0.3,0.8-1.4c0.3-1.2,0.1-1.5-0.2-1.6c0.9-4.4-1.2-4.6-1.2-4.6  s-0.3-0.6-1.2-1.1c-0.5-0.3-1.1-0.5-2-0.5c-0.1,0-0.3,0-0.4,0c-0.3,0-0.6,0.1-0.9,0.2h0c-0.4,0.1-0.7,0.3-1,0.5  c-0.4,0.2-0.7,0.5-1.1,0.9c-0.5,0.5-1,1.2-1.2,2c-0.2,0.7-0.2,1.5,0.1,2.3c0,0,0,0-0.1,0C57.3,15.1,57,15.4,57.4,16.8z M33.3,16.8  c0.3,1.1,0.6,1.4,0.8,1.4c0.1,0.6,0.3,1.3,0.7,1.9v0.8c0.2-0.1,0.5-0.2,0.7-0.3l0,0l0,0c0.5-0.2,1.1-0.3,1.7-0.3c0.2,0,0.4,0,0.6,0  c1.2,0,2.4,0.3,3.4,0.9v-1.2c0.2-0.5,0.4-1,0.5-1.5c0,0,0.1,0.1,0.2,0.1c0.2,0,0.5-0.3,0.8-1.4c0.3-1.2,0.1-1.5-0.2-1.6  c0.9-4.4-1.2-4.6-1.2-4.6s-0.3-0.6-1.2-1.1c-0.5-0.3-1.1-0.5-2-0.5c-0.1,0-0.3,0-0.4,0c-0.3,0-0.6,0.1-0.9,0.2h0  c-0.4,0.1-0.7,0.3-1,0.5c-0.4,0.2-0.7,0.5-1.1,0.9c-0.5,0.5-1,1.2-1.2,2c-0.2,0.7-0.2,1.5,0.1,2.3c0,0,0,0-0.1,0  C33.3,15.1,32.9,15.4,33.3,16.8z M46.6,30.8c-0.2,0.1-0.6,0.3-1.2,0.6c0,0.3-0.1,0.6-0.2,0.9c-0.2,0.5-0.5,1.8-1.4,2.6  c-0.1,0.2-0.1,0.4-0.2,0.6v0.2c1.4,0.8,3.7,2.1,5.9,3.9c0.2,0.2,0.4,0.4,0.6,0.6c0.2-0.2,0.4-0.4,0.6-0.6c2.1-1.8,4.4-3.1,5.8-3.9  c-0.2-0.4-0.4-0.9-0.5-1.4c-0.6-0.8-0.9-1.8-1.1-2.3c-0.1-0.2-0.1-0.4-0.1-0.6c-0.6-0.3-1.1-0.6-1.2-0.7c-0.1,0-0.1-0.1-0.1-0.2  v-1.7c0.3-0.5,0.4-1.1,0.5-1.6c0,0,0.1,0.1,0.2,0.1c0.2,0,0.5-0.3,0.9-1.5c0.3-1.2,0.1-1.6-0.2-1.7c1-4.6-1.2-4.7-1.2-4.7  s-0.3-0.6-1.2-1.1c-0.5-0.3-1.2-0.5-2-0.5c-0.1,0-0.3,0-0.4,0c-0.3,0-0.7,0.1-1,0.2l0,0c-0.4,0.1-0.8,0.3-1.1,0.6  c-0.4,0.3-0.8,0.6-1.1,0.9c-0.5,0.5-1,1.2-1.2,2.1c-0.2,0.7-0.2,1.5,0.1,2.3c0,0,0,0-0.1,0c-0.3,0-0.6,0.2-0.5,1.2  c0.1,0.3,0.2,0.6,0.2,0.9c0.3,0.9,0.5,1.1,0.7,1.1c0.1,0.6,0.3,1.4,0.7,2v1.5C46.7,30.7,46.6,30.7,46.6,30.8z M67.5,93.6l2.2-27.8  l2.4-2.8c1.1-1.4,1.8-3.1,1.8-4.9V46.2v-3.2c0-0.7-0.3-1.3-0.8-1.7c-2.9-2.4-6-3.9-6.6-4.2c-0.1,0-0.1-0.1-0.1-0.2V35  c0.3-0.6,0.5-1.2,0.6-1.8c0.1,0,0.1,0.1,0.2,0.1c0.3,0,0.6-0.3,1-1.6c0.4-1.3,0.2-1.8-0.2-1.9c1.1-5.1-1.4-5.3-1.4-5.3  S66,23.7,65,23.2c-0.6-0.3-1.3-0.6-2.3-0.6c-0.2,0-0.3,0-0.5,0c-0.4,0-0.8,0.1-1.1,0.2l0,0c-0.4,0.1-0.8,0.4-1.2,0.6  c-0.4,0.3-0.9,0.6-1.2,1c-0.6,0.6-1.1,1.4-1.3,2.4c-0.2,0.8-0.2,1.7,0.1,2.6c0,0-0.1,0-0.1,0c-0.4,0-0.8,0.3-0.4,1.9  c0.4,1.3,0.7,1.6,0.9,1.6c0.1,0.7,0.3,1.5,0.8,2.3v1.7c0,0.1,0,0.1-0.1,0.2C58,37.4,54.9,39,52,41.3c-0.5,0.4-0.8,1.1-0.8,1.7v3.2  v11.9c0,1.8,0.6,3.5,1.7,4.8l2.4,2.8l2.2,27.8c0.1,1,0.9,1.7,1.9,1.7h6.2C66.6,95.3,67.4,94.5,67.5,93.6z M33.7,37.1  c-0.6,0.3-3.7,1.9-6.6,4.2c-0.5,0.4-0.8,1.1-0.8,1.7v3.2v11.9c0,1.8,0.6,3.5,1.7,4.8l2.4,2.8l2.2,27.8c0.1,1,0.9,1.7,1.9,1.7h6.2  c1,0,1.8-0.8,1.9-1.7l2.2-27.8l2.4-2.8c1.1-1.4,1.8-3.1,1.8-4.9V46.2v-3.2c0-0.7-0.3-1.3-0.8-1.7c-2.9-2.4-6-3.9-6.6-4.2  c-0.1,0-0.1-0.1-0.1-0.2V35c0.3-0.6,0.5-1.2,0.6-1.8c0.1,0,0.1,0.1,0.2,0.1c0.3,0,0.6-0.3,1-1.6c0.4-1.3,0.1-1.8-0.2-1.9  c1.1-5.1-1.4-5.3-1.4-5.3s-0.4-0.7-1.3-1.2c-0.6-0.3-1.3-0.6-2.3-0.6c-0.2,0-0.3,0-0.5,0c-0.4,0-0.8,0.1-1.1,0.2l0,0  c-0.4,0.1-0.8,0.4-1.2,0.6c-0.4,0.3-0.9,0.6-1.2,1c-0.6,0.6-1.1,1.4-1.3,2.4c-0.2,0.8-0.2,1.7,0.1,2.6c0,0-0.1,0-0.1,0  c-0.4,0-0.8,0.3-0.4,1.9c0.4,1.3,0.7,1.6,0.9,1.6c0.1,0.7,0.3,1.5,0.8,2.3v1.7C33.8,37,33.7,37.1,33.7,37.1z"/></svg>
