<svg xmlns="http://www.w3.org/2000/svg" xmlns:xlink="http://www.w3.org/1999/xlink" version="1.1" x="0px" y="0px" viewBox="0 0 64 80" enable-background="new 0 0 64 64" xml:space="preserve"><path fill-rule="evenodd" clip-rule="evenodd" fill="#000000" d="M43.998,38h7.82C51.93,38.651,52,39.317,52,39.999  C52,46.628,46.627,52,40,52c-2.23,0-4.312-0.618-6.098-1.682c-0.213,4.449-0.858,8.782-1.933,12.947l-0.021-0.007  c-0.118,0.423-0.488,0.74-0.948,0.74c-0.552,0-1.001-0.447-1.001-0.999c0-0.083,0.028-0.155,0.047-0.233l-0.013-0.004  c1.282-4.966,1.966-10.176,1.966-15.543c0-0.083,0.002-0.143,0.002-0.221h-0.002V34.001c-7.73,0-13.999-6.269-13.999-14v-8.032  c0-3.102-1.412-5.873-3.629-7.707l0.024-0.03C14.161,4.054,14,3.788,14,3.469c0-0.553,0.447-0.999,0.999-0.999  c0.064,0,0.12,0.024,0.182,0.037l0.002-0.009c1.665,0.312,3.271,0.789,4.815,1.383V1c0-0.552,0.449-0.999,1.002-0.999  c3.28,0,6.394,0.678,9.235,1.875C33.602,0.673,37.221,0.001,41,0.001c0.553,0,1,0.447,1,0.999v1c0,0.22-0.086,0.414-0.205,0.578  C43.469,2.203,45.211,2,47,2c0.551,0,1,0.449,1,1.001c0,0.332-0.17,0.612-0.42,0.793l0.02,0.025C46.633,4.551,46,5.696,46,7.001v13  c0,7.052-5.221,12.868-12.002,13.841v9.556C36.145,40.149,39.814,38,43.998,38L43.998,38z M40,49.999c5.521,0,10-4.476,10-10h-6.002  c-4.879,0-8.936,3.499-9.816,8.123C35.822,49.299,37.828,49.999,40,49.999L40,49.999z M21.999,2.043v2.701  c2.716,1.298,5.199,3.005,7.35,5.061c1.295-1.409,2.76-2.651,4.353-3.719C30.365,3.71,26.353,2.24,21.999,2.043L21.999,2.043z   M40,3.001V2.039c-2.48,0.084-4.879,0.472-7.166,1.123c0.943,0.539,1.859,1.129,2.719,1.786c1.404-0.769,2.896-1.399,4.455-1.879  C40.006,3.046,40,3.03,40,3.001L40,3.001z M43.998,20.001v-13c0-1.049,0.279-2.026,0.758-2.879  c-5.549,0.566-10.467,3.202-14.02,7.113C35.238,16.199,38,22.769,38,29.999c0,0.13-0.008,0.26-0.01,0.39  C41.58,28.315,43.998,24.443,43.998,20.001L43.998,20.001z M35.957,31.317C35.98,30.881,36,30.442,36,29.999  C36,18.416,28.409,8.641,17.944,5.28c1.119,1.66,1.827,3.61,1.999,5.72h0.055v9.001C19.998,26.628,25.372,32,31.999,32  C33.388,32,34.717,31.753,35.957,31.317L35.957,31.317z"/></svg>
