<svg xmlns="http://www.w3.org/2000/svg" xmlns:xlink="http://www.w3.org/1999/xlink" version="1.1" x="0px" y="0px" viewBox="0 0 100 125" enable-background="new 0 0 100 100" xml:space="preserve"><path d="M63.482,13.421c-7.768,0.145-11.659,5.656-12.852,7.706c-2.739-6.607-7.508-12.098-14.681-13.205l-1.191-0.184l0.791,0.916  c0.029,0.01,5.011,5.803,5.075,10.836c0.019,1.198-0.231,2.347-0.86,3.381c-1.811,2.931-3.561,8.615-3.477,14.043  c0.076,5.207,2.034,10.267,7.427,12.081l0.125,0.367c0.041,0.007,0.818,2.806,2.947,3.364  c-4.033,28.454-14.764,38.834-14.742,38.906l0.608,0.632c0.064-0.049,10.964-10.774,15.023-39.457  c1.183-0.13,2.474-0.983,3.931-3.028c8.833-0.374,12.414-13.899,12.279-24.126c-0.035-2.068-0.246-3.995-0.586-5.68  c-0.061-0.318-0.096-0.62-0.096-0.894c-0.159-3.522,4.714-4.293,4.714-4.296l0.042-0.868C66.352,13.546,64.862,13.399,63.482,13.421  z"/></svg>
