<svg xmlns="http://www.w3.org/2000/svg" xmlns:xlink="http://www.w3.org/1999/xlink" version="1.1" x="0px" y="0px" viewBox="0 0 100 125" style="enable-background:new 0 0 100 100;" xml:space="preserve"><rect x="12.1" y="90.2" width="76.6" height="4.5"/><rect x="17.3" y="80.8" width="66.3" height="7.2"/><rect x="17.3" y="47.4" width="66.3" height="3.6"/><rect x="21.5" y="52.8" width="8.7" height="26.1"/><rect x="37.9" y="52.8" width="8.7" height="26.1"/><rect x="54.3" y="52.8" width="8.7" height="26.1"/><rect x="70.7" y="52.8" width="8.7" height="26.1"/><path d="M79.2,45.7C77.6,31.2,65.3,20,50.4,20S23.3,31.2,21.7,45.7H79.2z"/><rect x="49.4" y="4.7" width="1.7" height="14.1"/><path d="M51.9,4.7c6,0,8.3,0.9,13.1,0.9c0,1.2,0,6,0,7.5c-4.7,0-7.1-0.9-13.1-0.9C51.9,11,51.9,5.6,51.9,4.7z"/></svg>
