<svg xmlns="http://www.w3.org/2000/svg" xmlns:xlink="http://www.w3.org/1999/xlink" version="1.1" x="0px" y="0px" viewBox="0 0 96 120" style="enable-background:new 0 0 96 96;" xml:space="preserve"><path d="M43.5,82.2L43.5,82.2l-0.1-0.8c0-1.7-1.4-3.1-3.1-3.1H12.9c-1.7,0-3.1,1.4-3.1,3.1v0.8H9.5c-2.5,0-4.5,2-4.5,4.5v4h42.8H48  v-4C48,84.2,46,82.2,43.5,82.2z"/><g><path d="M30.8,52.4l-14-15c-1.4-1.5-1.4-4,0.2-5.4l2.2-2c1.5-1.4,4-1.4,5.4,0.2l14,15c1.4,1.5,1.4,4-0.2,5.4l-2.2,2   C34.7,54,32.2,53.9,30.8,52.4z"/></g><g><path d="M49.5,7.1l14,15c1.4,1.5,1.4,4-0.2,5.4l-2.2,2c-1.5,1.4-4,1.4-5.4-0.2l-14-15c-1.4-1.5-1.4-4,0.2-5.4l2.2-2   C45.6,5.5,48,5.6,49.5,7.1z"/></g><path d="M90.7,77.6c0,0,0-1.7-1.4-3.1L53.5,38.3l2.2-2l-3.3-3.7l2.1-1.9L40.2,15.5L25.9,28.8L40.1,44l1.9-1.7l3.3,3.7l2.6-2.4  l35.2,35.9c1.4,1.4,3.2,1.7,3.2,1.7l4.5,0.8L90.7,77.6z"/></svg>
