<svg xmlns="http://www.w3.org/2000/svg" xmlns:xlink="http://www.w3.org/1999/xlink" version="1.1" x="0px" y="0px" viewBox="0 0 64 80" enable-background="new 0 0 64 64" xml:space="preserve"><g display="none"><g display="inline"><path fill="#000000" d="M32,63.5C14.631,63.5,0.5,49.369,0.5,32S14.631,0.5,32,0.5S63.5,14.631,63.5,32S49.369,63.5,32,63.5z"/><path fill="#000000" d="M32,1c17.093,0,31,13.907,31,31S49.093,63,32,63S1,49.093,1,32S14.907,1,32,1 M32,0    C14.327,0,0,14.327,0,32s14.327,32,32,32s32-14.327,32-32S49.673,0,32,0L32,0z"/></g><g display="inline"><g><path d="M35.846,37.464c-0.576,0.391-1.542,0.781-2.768,0.781c-1.506,0-2.843-0.576-3.772-1.654     c-0.706-0.781-1.171-1.858-1.338-3.196h-1.152v-0.911h1.06c0-0.092,0-0.185,0-0.279c0-0.297,0.018-0.576,0.037-0.836h-1.097     v-0.93h1.227c0.223-1.301,0.781-2.379,1.523-3.14c0.948-0.985,2.156-1.542,3.68-1.542c1.096,0,1.951,0.316,2.471,0.594     l-0.372,1.226c-0.464-0.279-1.245-0.52-2.081-0.52c-1.003,0-1.821,0.353-2.453,1.022c-0.557,0.539-0.929,1.375-1.115,2.36h5.185     v0.93h-5.352c-0.018,0.241-0.037,0.52-0.037,0.781c0,0.111,0,0.204,0,0.334h5.389v0.911h-5.259     c0.148,1.078,0.52,1.878,1.022,2.435c0.687,0.724,1.617,1.078,2.62,1.078c0.985,0,1.84-0.372,2.267-0.613L35.846,37.464z"/></g><path fill="#000000" d="M53.009,35.149V28.85l-6.411-0.641c-0.366-1.349-0.928-2.616-1.645-3.777l4.133-5.052l-4.454-4.454    l-5.255,4.299c-1.099-0.578-2.28-1.023-3.524-1.304l-0.692-6.918h-3.149h-0.027h-3.149l-0.692,6.918    c-1.244,0.28-2.424,0.725-3.524,1.304l-5.255-4.299l-4.454,4.454l4.133,5.052c-0.717,1.161-1.279,2.428-1.645,3.777l-6.411,0.641    v6.299l6.42,0.642c0.369,1.345,0.923,2.613,1.639,3.772l-4.137,5.056l4.454,4.454l5.254-4.299c1.1,0.578,2.281,1.023,3.524,1.303    l0.692,6.918h3.149h0.027h3.149l0.692-6.918c1.244-0.28,2.425-0.725,3.524-1.303l5.254,4.299l4.454-4.454l-4.137-5.056    c0.716-1.159,1.27-2.428,1.639-3.772L53.009,35.149z M32,41.475c-5.233,0-9.475-4.242-9.475-9.475s4.242-9.475,9.475-9.475    s9.475,4.242,9.475,9.475S37.233,41.475,32,41.475z"/></g></g><g display="none"><rect x="-485.005" y="-321.667" display="inline" fill="#000000" width="791.333" height="440"/></g><g display="none"><g display="inline"><g><circle cx="32" cy="16.334" r="2.727"/><path d="M31.871,25.399l-2.635-5.712c0,0-2.764,0.037-2.764,2.58s0,3.132,0,3.132S31.889,25.399,31.871,25.399z"/><path d="M32.129,25.399l2.635-5.712c0,0,2.764,0.037,2.764,2.58s0,3.132,0,3.132S32.111,25.399,32.129,25.399z"/><polygon points="32,19.688 30.102,19.688 32,23.889 33.898,19.688    "/></g><g><g><g><path d="M32,8.144l9.57,6.831v14.458H22.43V14.976L32,8.144 M32,5.687l-11.57,8.259v17.488h23.14V13.946L32,5.687L32,5.687z"/></g><g><polygon points="32,0 18.226,9.852 18.226,13.117 32,3.265 45.774,13.117 45.774,9.852      "/></g></g></g></g><g display="inline"><g><circle cx="13.774" cy="48.9" r="2.727"/><path d="M13.645,57.965l-2.635-5.712c0,0-2.764,0.037-2.764,2.58s0,3.132,0,3.132S13.664,57.965,13.645,57.965z"/><path d="M13.903,57.965l2.635-5.712c0,0,2.764,0.037,2.764,2.58s0,3.132,0,3.132S13.885,57.965,13.903,57.965z"/><polygon points="13.774,52.254 11.876,52.254 13.774,56.455 15.672,52.254    "/></g><g><g><g><path d="M13.774,40.71l9.57,6.831V62H4.204V47.542L13.774,40.71 M13.774,38.253l-11.57,8.259V64h23.141V46.512L13.774,38.253       L13.774,38.253z"/></g><g><polygon points="13.774,32.566 0,42.418 0,45.683 13.774,35.831 27.549,45.683 27.549,42.418      "/></g></g></g></g><g display="inline"><g><circle cx="50.226" cy="48.9" r="2.727"/><path d="M50.097,57.965l-2.635-5.712c0,0-2.764,0.037-2.764,2.58s0,3.132,0,3.132S50.115,57.965,50.097,57.965z"/><path d="M50.355,57.965l2.635-5.712c0,0,2.764,0.037,2.764,2.58s0,3.132,0,3.132S50.336,57.965,50.355,57.965z"/><polygon points="50.226,52.254 48.328,52.254 50.226,56.455 52.124,52.254    "/></g><g><g><g><path d="M50.226,40.71l9.57,6.831V62H40.655V47.542L50.226,40.71 M50.226,38.253l-11.57,8.259V64h23.141V46.512L50.226,38.253       L50.226,38.253z"/></g><g><polygon points="50.226,32.566 36.451,42.418 36.451,45.683 50.226,35.831 64,45.683 64,42.418      "/></g></g></g></g></g><g display="none"><g display="inline"><g><g><g><g><polygon fill="#000000" points="21.429,30.434 21.429,14.461 32,6.916 42.57,14.461 42.57,30.434       "/></g></g><g><g><path fill="#000000" d="M32,8.144l9.57,6.831v14.458H22.43V14.976L32,8.144 M32,5.687l-11.57,8.259v17.488h23.14V13.946        L32,5.687L32,5.687z"/></g></g></g><g><polygon fill="#000000" points="32,0 18.226,9.852 18.226,13.117 32,3.265 45.774,13.117 45.774,9.852     "/></g></g></g><g display="inline"><g><g><g><polygon fill="#000000" points="3.204,63 3.204,47.026 13.774,39.481 24.344,47.026 24.344,63      "/></g><g><path fill="#000000" d="M13.774,40.71l9.57,6.831V62H4.204V47.542L13.774,40.71 M13.774,38.253l-11.57,8.259V64h23.141V46.512       L13.774,38.253L13.774,38.253z"/></g></g><g><polygon fill="#000000" points="13.774,32.566 0,42.418 0,45.683 13.774,35.831 27.549,45.683 27.549,42.418     "/></g></g></g><g display="inline"><g><g><g><polygon fill="#000000" points="39.655,63 39.655,47.026 50.225,39.481 60.797,47.026 60.797,63      "/></g><g><path fill="#000000" d="M50.226,40.71l9.57,6.831V62H40.655V47.542L50.226,40.71 M50.226,38.253l-11.57,8.259V64h23.141V46.512       L50.226,38.253L50.226,38.253z"/></g></g><g><polygon fill="#000000" points="50.226,32.566 36.451,42.418 36.451,45.683 50.226,35.831 64,45.683 64,42.418     "/></g></g></g><g display="inline"><g><circle fill="#000000" cx="32" cy="16.334" r="2.727"/></g><g><path fill="#000000" d="M31.871,25.399l-2.635-5.712c0,0-2.764,0.037-2.764,2.58s0,3.132,0,3.132S31.889,25.399,31.871,25.399z"/></g><g><path fill="#000000" d="M32.129,25.399l2.635-5.712c0,0,2.764,0.037,2.764,2.58s0,3.132,0,3.132S32.111,25.399,32.129,25.399z"/></g><g><polygon fill="#000000" points="32,19.688 30.102,19.688 32,23.889 33.898,19.688    "/></g></g><g display="inline"><g><circle fill="#000000" cx="13.774" cy="48.9" r="2.727"/></g><g><path fill="#000000" d="M13.645,57.965l-2.635-5.712c0,0-2.764,0.037-2.764,2.58s0,3.132,0,3.132S13.664,57.965,13.645,57.965z"/></g><g><path fill="#000000" d="M13.903,57.965l2.635-5.712c0,0,2.764,0.037,2.764,2.58s0,3.132,0,3.132S13.885,57.965,13.903,57.965z"/></g><g><polygon fill="#000000" points="13.774,52.254 11.876,52.254 13.774,56.455 15.672,52.254    "/></g></g><g display="inline"><g><circle fill="#000000" cx="50.226" cy="48.9" r="2.727"/></g><g><path fill="#000000" d="M50.097,57.965l-2.635-5.712c0,0-2.764,0.037-2.764,2.58s0,3.132,0,3.132S50.115,57.965,50.097,57.965z"/></g><g><path fill="#000000" d="M50.355,57.965l2.635-5.712c0,0,2.764,0.037,2.764,2.58s0,3.132,0,3.132S50.336,57.965,50.355,57.965z"/></g><g><polygon fill="#000000" points="50.226,52.254 48.328,52.254 50.226,56.455 52.124,52.254    "/></g></g></g><g><polygon points="13.774,32.566 0,42.418 0,45.683 13.774,35.831 27.549,45.683 27.549,42.418  "/></g><g><path d="M13.774,38.253l-11.57,8.259V64h23.141V46.512L13.774,38.253z M13.774,46.112c1.506,0,2.727,1.221,2.727,2.727   s-1.221,2.727-2.727,2.727s-2.727-1.221-2.727-2.727S12.268,46.112,13.774,46.112z M8.247,58.395c0,0,0-0.59,0-3.132   c0-2.543,2.764-2.58,2.764-2.58l2.635,5.712C13.664,58.395,8.247,58.395,8.247,58.395z M12.248,52.546h1.526H15.3l-1.526,3.378   L12.248,52.546z M19.302,58.395c0,0-5.417,0-5.399,0l2.635-5.712c0,0,2.764,0.037,2.764,2.58   C19.302,57.805,19.302,58.395,19.302,58.395z"/></g><g><polygon points="50.226,32.566 36.451,42.418 36.451,45.683 50.226,35.831 64,45.683 64,42.418  "/></g><g><path d="M50.226,38.253l-11.57,8.259V64h23.141V46.512L50.226,38.253z M50.226,46.112c1.506,0,2.727,1.221,2.727,2.727   s-1.221,2.727-2.727,2.727s-2.727-1.221-2.727-2.727S48.72,46.112,50.226,46.112z M44.698,58.395c0,0,0-0.59,0-3.132   c0-2.543,2.764-2.58,2.764-2.58l2.635,5.712C50.115,58.395,44.698,58.395,44.698,58.395z M48.7,52.546h1.526h1.526l-1.526,3.378   L48.7,52.546z M55.753,58.395c0,0-5.417,0-5.399,0l2.635-5.712c0,0,2.764,0.037,2.764,2.58   C55.753,57.805,55.753,58.395,55.753,58.395z"/></g><g><g><polygon points="32.001,0 18.226,9.852 18.226,13.117 32.001,3.265 45.774,13.117 45.774,9.852   "/></g><g><path d="M32.001,5.687l-11.57,8.259v17.488h23.141V13.946L32.001,5.687z M32.001,13.546c1.506,0,2.727,1.221,2.727,2.727    S33.507,19,32.001,19c-1.506,0-2.727-1.221-2.727-2.727S30.495,13.546,32.001,13.546z M26.473,25.829c0,0,0-0.59,0-3.132    c0-2.543,2.764-2.58,2.764-2.58l2.635,5.712C31.89,25.829,26.473,25.829,26.473,25.829z M30.475,19.98h1.526h1.526l-1.526,3.378    L30.475,19.98z M37.527,25.829c0,0-5.417,0-5.399,0l2.635-5.712c0,0,2.764,0.037,2.764,2.58    C37.527,25.239,37.527,25.829,37.527,25.829z"/></g></g></svg>
