<svg xmlns="http://www.w3.org/2000/svg" viewBox="0 0 60 75" x="0px" y="0px"><title>Buildings - 011 - Government Building</title><path d="M58,33H53V28a2.99413,2.99413,0,0,0-2.04651-2.8302C50.54242,16.62469,43.88086,9.54065,35,7.567V7a3.00328,3.00328,0,0,0-3-3H31V1a1,1,0,0,0-2,0V4H28a3.00328,3.00328,0,0,0-3,3v.567C16.11914,9.54065,9.45758,16.62469,9.04651,25.1698A2.99413,2.99413,0,0,0,7,28v5H2a2.002,2.002,0,0,0-2,2v5a2.995,2.995,0,0,0,2,2.81567V54a2.002,2.002,0,0,0-2,2v3a1,1,0,0,0,1,1H59a1,1,0,0,0,1-1V56a2.002,2.002,0,0,0-2-2V42.81573A2.99508,2.99508,0,0,0,60,40V35A2.002,2.002,0,0,0,58,33Zm-9.05664-8h-5.978c-.21851-6.09149-2.39465-11.43451-5.63959-14.68262C43.84747,12.76544,48.50983,18.38159,48.94336,25ZM19.03278,25C19.35107,16.60645,23.61554,9.83276,29,9.07831V25ZM31,9.07831C36.38446,9.83276,40.64893,16.60645,40.96722,25H31ZM27,7a1.0013,1.0013,0,0,1,1-1h4a1.0013,1.0013,0,0,1,1,1v.2168A23.132,23.132,0,0,0,30,7a23.132,23.132,0,0,0-3,.2168Zm-4.32574,3.31738C19.42932,13.56549,17.25317,18.90851,17.03467,25h-5.978C11.49017,18.38159,16.15253,12.76544,22.67426,10.31738ZM10,27H50a1.0013,1.0013,0,0,1,1,1v1H9V28A1.0013,1.0013,0,0,1,10,27ZM9,31H51v2H9ZM2,35H58v2H2Zm50,7.81567V54H46V42.81573A2.99508,2.99508,0,0,0,48,40V39h2v1A2.995,2.995,0,0,0,52,42.81567ZM33,54V42.81573A2.99508,2.99508,0,0,0,35,40V39h3v1a2.995,2.995,0,0,0,2,2.81567V54ZM20,54V42.81573A2.99508,2.99508,0,0,0,22,40V39h3v1a2.995,2.995,0,0,0,2,2.81567V54ZM8,54V42.81573A2.99508,2.99508,0,0,0,10,40V39h2v1a2.995,2.995,0,0,0,2,2.81567V54ZM2,40V39H8v1a1.0013,1.0013,0,0,1-1,1H3A1.0013,1.0013,0,0,1,2,40Zm17,1H15a1.0013,1.0013,0,0,1-1-1V39h6v1A1.0013,1.0013,0,0,1,19,41Zm-3,2h2V54H16Zm16-2H28a1.0013,1.0013,0,0,1-1-1V39h6v1A1.0013,1.0013,0,0,1,32,41Zm-3,2h2V54H29Zm16-2H41a1.0013,1.0013,0,0,1-1-1V39h6v1A1.0013,1.0013,0,0,1,45,41Zm-3,2h2V54H42ZM4,43H6V54H4ZM58,58H2V56H58Zm-4-4V43h2V54Zm4-14a1.0013,1.0013,0,0,1-1,1H53a1.0013,1.0013,0,0,1-1-1V39h6Z"/></svg>
