<svg xmlns:dc="http://purl.org/dc/elements/1.1/" xmlns:cc="http://creativecommons.org/ns#" xmlns:rdf="http://www.w3.org/1999/02/22-rdf-syntax-ns#" xmlns:svg="http://www.w3.org/2000/svg" xmlns="http://www.w3.org/2000/svg" xmlns:sodipodi="http://sodipodi.sourceforge.net/DTD/sodipodi-0.dtd" xmlns:inkscape="http://www.inkscape.org/namespaces/inkscape" fill="#000000" version="1.1" x="0px" y="0px" viewBox="0 0 100 125"><path style="font-size:medium;font-style:normal;font-variant:normal;font-weight:normal;font-stretch:normal;text-indent:0;text-align:start;text-decoration:none;line-height:normal;letter-spacing:normal;word-spacing:normal;text-transform:none;direction:ltr;block-progression:tb;writing-mode:lr-tb;text-anchor:start;baseline-shift:baseline;opacity:1;color:#000000;fill:#000000;fill-opacity:1;stroke:none;stroke-width:6;marker:none;visibility:visible;display:inline;overflow:visible;enable-background:accumulate;font-family:Sans;-inkscape-font-specification:Sans" d="M 49.6875 5 A 3.0003 3.0003 0 0 0 47 8 L 47 29.125 C 33.60337 30.261125 22.296208 38.902309 17.25 50.84375 A 3.0003 3.0003 0 0 0 20 55 L 22 55 L 22 73 L 20 73 A 3.0003 3.0003 0 0 0 19.6875 73 A 3.0003 3.0003 0 0 0 17 76 L 17 79 L 14 79 A 3.0003 3.0003 0 0 0 11 82 L 11 92 A 3.0003 3.0003 0 0 0 14 95 L 86 95 A 3.0003 3.0003 0 0 0 89 92 L 89 82 A 3.0003 3.0003 0 0 0 86 79 L 83 79 L 83 76 A 3.0003 3.0003 0 0 0 80 73 L 78 73 L 78 62 A 3.0003 3.0003 0 0 0 74.65625 58.96875 A 3.0003 3.0003 0 0 0 72 62 L 72 73 L 68 73 L 68 55 L 80 55 A 3.0003 3.0003 0 0 0 82.75 50.84375 C 77.7038 38.902308 66.396639 30.261125 53 29.125 L 53 23.375 C 55.318835 23.764344 56.799866 24.450732 58.46875 25.5625 C 60.712665 27.057338 64.059649 29 70 29 A 3.0003 3.0003 0 0 0 73 26 L 73 14 A 3.0003 3.0003 0 0 0 70 11 C 65.045455 11 64.264032 10.094464 62.09375 8.5625 C 59.923468 7.030536 56.5 5 50 5 A 3.0003 3.0003 0 0 0 49.6875 5 z M 53 11.375 C 55.57074 11.734632 57.134363 12.363227 58.65625 13.4375 C 60.349107 14.632458 62.884825 16.195677 67 16.75 L 67 22.625 C 64.801436 22.254077 63.323291 21.621018 61.78125 20.59375 C 59.938168 19.365936 57.232433 17.791108 53 17.25 L 53 11.375 z M 50 35 C 60.585482 35 69.829441 40.593291 75.0625 49 L 24.9375 49 C 30.170564 40.593291 39.41453 35 50 35 z M 28 55 L 32 55 L 32 73 L 28 73 L 28 55 z M 38 55 L 42 55 L 42 73 L 38 73 L 38 55 z M 48 55 L 52 55 L 52 73 L 48 73 L 48 55 z M 58 55 L 62 55 L 62 73 L 58 73 L 58 55 z M 23 79 L 77 79 L 77 82 A 3.0003 3.0003 0 0 0 80 85 L 83 85 L 83 89 L 17 89 L 17 85 L 20 85 A 3.0003 3.0003 0 0 0 23 82 L 23 79 z "/></svg>
