<svg xmlns="http://www.w3.org/2000/svg" xmlns:xlink="http://www.w3.org/1999/xlink" version="1.1" x="0px" y="0px" viewBox="0 0 100 125" style="enable-background:new 0 0 100 100;" xml:space="preserve"><path d="M87.4,73.6C85.6,58,80.1,43.1,71,30.1l-8.8-12.7L82.5,5l5.8,29.5C90.9,47.5,90.5,60.8,87.4,73.6z M38,17.6L17.5,5l-5.8,29.5  C9,47.8,9.5,61.4,12.8,74.3c1.6-15.9,7.2-31,16.4-44.2L38,17.6z M50.1,8.1L33,32.7C22.5,47.8,16.9,65.6,16.9,84c0,6.1,5,11,11,11  h44.4c6.1,0,11-4.9,11-11c0-18.4-5.6-36.1-16.1-51.2L50.1,8.1z"/></svg>