<svg xmlns="http://www.w3.org/2000/svg" xmlns:xlink="http://www.w3.org/1999/xlink" version="1.1" x="0px" y="0px" viewBox="0 0 65 81.25" enable-background="new 0 0 65 65" xml:space="preserve"><path d="M55.3,39.4c-0.1,0-0.3,0-0.4,0C55.1,39.4,55.2,39.4,55.3,39.4c0.3,0,0.5,0,0.8,0V25.6c3.2-0.4,5.7-3.1,5.7-6.3  c0-3.5-2.9-6.4-6.4-6.4c-2.1,0-4,1-5.2,2.7c0,0,0,0,0-0.1L38.4,8.7c0.3-0.8,0.5-1.6,0.5-2.5c0-3.5-2.9-6.4-6.4-6.4  c-3.5,0-6.4,2.9-6.4,6.4c0,0.9,0.2,1.8,0.6,2.6c0,0,0,0,0,0l-11.8,6.8c0,0.1,0.1,0.2,0.1,0.3c-1.2-1.8-3.2-2.8-5.3-2.8  c-3.5,0-6.4,2.9-6.4,6.4c0,3.3,2.5,6,5.7,6.3c0,0,0,0,0,0v13.8c-3.2,0.4-5.7,3.1-5.7,6.4c0,3.5,2.9,6.4,6.4,6.4c2.1,0,4-1,5.2-2.7  l11.8,6.8c-0.3,0.8-0.5,1.6-0.5,2.5c0,3.5,2.9,6.4,6.4,6.4c3.5,0,6.4-2.9,6.4-6.4c0-0.9-0.2-1.7-0.5-2.5l11.8-6.8  c1.2,1.7,3.1,2.7,5.2,2.7c3.5,0,6.4-2.9,6.4-6.4C61.7,42.3,58.8,39.4,55.3,39.4z M50.3,41.9L44,38.3c0.9-1.8,1.4-3.7,1.4-5.8  c0-2.1-0.5-4-1.4-5.8l6.2-3.6c1,1.4,2.6,2.3,4.3,2.5c0,0,0,0,0,0c0,0,0,0,0,0v13.8c0,0,0,0,0,0C52.9,39.7,51.3,40.6,50.3,41.9z   M10.5,39.5C10.5,39.5,10.5,39.5,10.5,39.5C10.5,39.5,10.5,39.5,10.5,39.5l-0.1-13.8c0,0,0.1,0,0.1,0c0,0,0,0,0,0  c1.7-0.2,3.3-1.2,4.3-2.5l6.2,3.6c-0.9,1.8-1.4,3.7-1.4,5.8c0,2.1,0.5,4,1.4,5.8l-6.3,3.6C13.7,40.6,12.2,39.7,10.5,39.5z   M32.5,43.9L32.5,43.9L32.5,43.9c-1.6,0-3.3-2.5-4.1-6.5l8.2,0c-0.2,1.3-0.6,2.4-1,3.5C34.7,42.7,33.6,43.9,32.5,43.9z M28.1,35.8  c-0.1-1-0.2-2.1-0.2-3.3c0-1.2,0.1-2.3,0.2-3.3l8.7,0c0.1,1,0.2,2.1,0.2,3.3c0,1.1-0.1,2.3-0.2,3.3L28.1,35.8z M21.1,32.5  c0-1.1,0.2-2.3,0.5-3.3l5,0c-0.1,1.1-0.2,2.2-0.2,3.3c0,1.2,0.1,2.3,0.2,3.3l-5,0C21.3,34.8,21.1,33.7,21.1,32.5z M32.5,21.1  C32.5,21.1,32.5,21.1,32.5,21.1c1.6,0,3.3,2.5,4.1,6.5l-8.2,0C29.2,23.7,30.9,21.1,32.5,21.1z M38.4,29.2l5,0  c0.3,1.1,0.5,2.2,0.5,3.3c0,1.1-0.2,2.3-0.5,3.3l-5,0c0.1-1.1,0.2-2.2,0.2-3.3C38.6,31.3,38.5,30.2,38.4,29.2z M42.8,27.7l-4.6,0  c-0.5-2.5-1.3-4.6-2.4-6.1C38.9,22.5,41.4,24.8,42.8,27.7z M26.8,27.7l-4.6,0c0.6-1.2,1.3-2.3,2.2-3.2c1.4-1.4,3-2.3,4.8-2.9  C28.1,23,27.3,25.1,26.8,27.7z M22.2,37.3l4.6,0c0.5,2.5,1.3,4.6,2.4,6.1C26.1,42.5,23.6,40.2,22.2,37.3z M37,41.4  c0.5-1.2,0.9-2.6,1.2-4.1l4.6,0c-0.6,1.2-1.3,2.3-2.2,3.2c-1.3,1.3-3,2.3-4.7,2.9C36.2,42.8,36.6,42.2,37,41.4z M51.1,16.9  c0.9-1.5,2.5-2.5,4.2-2.5c2.7,0,4.9,2.2,4.9,4.9c0,2.7-2.2,4.9-4.9,4.9c-2.7,0-4.9-2.2-4.9-4.9C50.4,18.4,50.6,17.6,51.1,16.9z   M49.4,16.8c-0.3,0.8-0.5,1.6-0.5,2.5c0,0.9,0.2,1.8,0.5,2.5l-6.2,3.6c-2.2-3.3-5.8-5.5-10-5.8v-7.2c1.7-0.2,3.3-1.1,4.4-2.5  c0,0,0,0,0,0c0,0,0,0,0,0L49.4,16.8C49.4,16.8,49.4,16.8,49.4,16.8z M32.5,1.3c2.7,0,4.9,2.2,4.9,4.9c0,0.9-0.2,1.7-0.7,2.4  c-0.9,1.5-2.5,2.4-4.2,2.4c-1.7,0-3.4-0.9-4.2-2.5c-0.4-0.7-0.7-1.6-0.7-2.4C27.6,3.4,29.8,1.3,32.5,1.3z M27.4,10  c-0.1-0.1-0.1-0.2-0.2-0.3c1,1.6,2.7,2.6,4.6,2.8v7.2c-3.2,0.2-6.1,1.5-8.4,3.7c-0.6,0.6-1.2,1.3-1.6,2l-6.2-3.6  c0.3-0.8,0.5-1.6,0.5-2.5c0-0.9-0.2-1.7-0.5-2.5c0,0,0,0,0,0L27.4,10z M4.8,19.3c0-2.7,2.2-4.9,4.9-4.9c1.8,0,3.4,0.9,4.3,2.5  c0.4,0.7,0.6,1.6,0.6,2.4c0,2.7-2.2,4.9-4.9,4.9C7,24.2,4.8,22,4.8,19.3z M14,48.2c-0.9,1.6-2.5,2.5-4.3,2.5c-2.7,0-4.9-2.2-4.9-4.9  c0-2.7,2.2-4.9,4.9-4.9c2.7,0,4.9,2.2,4.9,4.9C14.6,46.7,14.4,47.5,14,48.2z M15.6,48.2c0.3-0.8,0.5-1.6,0.5-2.4  c0-0.9-0.2-1.8-0.6-2.6l6.3-3.6c2.2,3.3,5.8,5.5,10,5.8v7.2c-1.8,0.2-3.5,1.2-4.5,2.8c0-0.1,0.1-0.2,0.1-0.2L15.6,48.2  C15.6,48.2,15.6,48.2,15.6,48.2z M32.5,63.8c-2.7,0-4.9-2.2-4.9-4.9c0-0.9,0.2-1.7,0.7-2.4c0.9-1.5,2.5-2.4,4.2-2.4  c1.7,0,3.4,0.9,4.2,2.5c0.4,0.7,0.7,1.6,0.7,2.4C37.4,61.6,35.2,63.8,32.5,63.8z M37.6,55C37.6,55,37.6,55,37.6,55  C37.6,55,37.6,55,37.6,55c-1.1-1.4-2.6-2.3-4.4-2.5v-7.2c3.2-0.2,6.1-1.5,8.4-3.7c0.6-0.6,1.2-1.3,1.6-2l6.2,3.6  c-0.4,0.8-0.6,1.7-0.6,2.6c0,0.8,0.2,1.7,0.5,2.4c0,0,0,0,0,0L37.6,55z M55.3,50.7c-1.8,0-3.4-1-4.3-2.6c-0.4-0.7-0.6-1.5-0.6-2.3  c0-2.7,2.2-4.9,4.9-4.9c2.7,0,4.9,2.2,4.9,4.9C60.2,48.5,58,50.7,55.3,50.7z"/></svg>
