<svg xmlns="http://www.w3.org/2000/svg" xmlns:xlink="http://www.w3.org/1999/xlink" version="1.1" x="0px" y="0px" viewBox="0 0 792 765" enable-background="new 0 0 792 612" xml:space="preserve"><g><path d="M627.675,132.422c0,0,6.913-27.634,26.241-30.386c0,0-51.106-44.211-149.201,13.809c0,0-49.731-49.731-106.358-41.442   c0,0,17.953,42.818-17.97,55.251c0,0-26.241-35.906-51.107-42.818c0,0-26.242-20.722-113.271-13.809c0,0-29.01-12.433-40.067-9.681   c0,0-11.057,51.123,5.52,75.989c0,0-40.05,56.627,4.145,99.462c0,0,8.289,5.521,35.922,8.288c0,0-2.768-11.057,9.665-8.288   c0,0,5.536,53.875,17.969,64.916c0,0-8.289,13.82-2.768,23.485c0,0-24.866,69.077-37.299,80.117c0,0,0.146-42.091-12.433-69.061   c-19.345-41.438,16.577-78.737,16.577-78.737s-92.55,15.185-56.644,161.623c0,0,11.057,55.251-16.577,109.127   c0,0,74.597-9.665,100.854,1.376c0,0,100.838,33.154,78.741-42.819c0,0-9.681,45.588-48.355,16.578c0,0-13.809-12.434-31.778-9.665   c0,0,6.913-29.01,59.412-23.489c0,0,42.819-1.377,106.358,52.499c0,0,100.855,33.154,207.222,20.722l-31.762-26.258   c0,0,33.154-22.098,40.051-67.685c0,0,8.288-63.54-11.041-98.087c0,0,33.154-15.185,17.953-120.179c0,0-8.288-26.242-49.731-37.298   C577.943,195.962,619.387,175.24,627.675,132.422z M189.751,78.546c20.721-1.376,30.402,9.665,30.402,9.665   c-11.057,19.345-30.402,31.778-30.402,31.778C185.606,108.933,189.751,78.546,189.751,78.546z M229.817,200.106   c0,0,5.521-30.386,22.097-31.762c0,0,12.433,71.829,5.537,91.174C257.451,259.518,227.049,226.364,229.817,200.106z    M267.116,314.77c30.386-42.818,5.52-80.117,5.52-80.117c5.537-13.825-8.288-74.597-8.288-74.597c15.201-8.289,51.123,0,51.123,0   c37.299,128.473-69.076,204.441-69.076,204.441C251.915,356.208,267.116,314.77,267.116,314.77z M229.817,472.248l8.288-30.387   h-33.154l4.144-9.681c175.436-157.478,124.328-266.604,124.328-266.604c6.913,1.376,29.01,23.489,29.01,23.489   c-20.721-77.365-110.519-37.298-110.519-37.298c-48.339,23.473-41.443,84.261-41.443,84.261   c-85.637-51.107,19.346-135.385,19.346-135.385s34.53-24.865,84.261-5.52l-16.577,9.665c0,0,27.634-13.809,70.453,31.778   l1.392,4.144c15.185,51.107,8.289,73.221,8.289,73.221c15.185-12.433,34.53,0,34.53,0c53.876,20.721,44.211,74.597,44.211,74.597   c22.097,5.52,15.185-24.866,15.185-24.866c24.865,19.329,17.97,53.871,17.97,53.871c-26.258,102.215-98.087,80.117-98.087,80.117   c-30.386-13.809,4.145-31.777,4.145-31.777c-60.788,8.288-56.644-16.577-56.644-16.577   c66.308-20.722,71.845-103.603,71.845-103.603c4.145-19.329-15.201-20.722-15.201-20.722c1.376,71.845-35.922,96.706-35.922,96.706   c-17.953,20.722-44.195,2.752-44.195,2.752c-4.144,58.02,46.963,56.645,46.963,56.645c-6.912,9.664,2.769,23.489,2.769,23.489   C304.414,407.315,229.817,472.248,229.817,472.248z M320.991,432.181c0,0,38.674-19.329,70.452-22.097   c0,0,37.299,8.288,58.02-8.289c0,0,84.27-23.489,98.095,62.164c0,0-12.433,29.01-33.162,8.289   C514.396,472.248,428.742,418.372,320.991,432.181z M602.81,470.871c0,0-20.722,38.675-38.675,45.588l8.289,12.433   c0,0-51.124,13.809-85.662-15.201c0,0,74.605,12.433,74.605-62.164c0,0-15.201-69.077-87.038-69.077   c0,0,27.634-33.153,30.386-55.251C504.715,327.198,620.763,324.43,602.81,470.871z M501.963,287.136   c0,0,81.501,8.289,88.414,66.304c0,0-30.387-46.958-82.894-40.046L501.963,287.136z M602.81,338.255   c-27.634-64.928-103.615-69.072-103.615-69.072l1.376,4.145c0,0-4.232-6.646-11.695-15.897l13.088-3.448   c17.961,20.722,35.914,4.145,35.914,4.145c-9.664-4.145-29.018-22.098-29.018-22.098c-31.163-35.841-23.474-19.345-23.474-19.345   c8.288,12.433,11.04,20.721,11.04,20.721s1.393-5.52,0,4.145c-0.688,4.856-7.648,6.929-14.399,7.787   c-14.262-16.116-35.817-35.995-61.573-45.085c0,0-58.02-29.01-19.345-73.205c27.666-31.624,15.201-42.835,15.201-42.835   c132.624,22.113,77.364,118.808,77.364,118.808c27.626-16.577,67.693-4.144,67.693-4.144   C653.916,229.116,602.81,338.255,602.81,338.255z"/><path d="M474.329,160.056c-1.376,31.762-31.778,48.339-31.778,48.339c4.145,13.825,27.634-13.809,27.634-13.809   c-2.769,27.634,6.913,27.634,6.913,27.634C495.051,162.808,474.329,160.056,474.329,160.056z"/></g></svg>
